<mxfile host="app.diagrams.net" modified="2023-04-13T12:30:50.921Z" agent="Mozilla/5.0 (Windows NT 10.0; Win64; x64) AppleWebKit/537.36 (KHTML, like Gecko) Chrome/111.0.0.0 Safari/537.36" etag="OGTjT0AOdUdKxnHzmxhq" version="21.1.0" type="device">
  <diagram name="prompt" id="jOHw6pifErmNxy-7KHGX">
    <mxGraphModel dx="1434" dy="764" grid="1" gridSize="10" guides="1" tooltips="1" connect="1" arrows="1" fold="1" page="1" pageScale="1" pageWidth="827" pageHeight="1169" math="0" shadow="0">
      <root>
        <mxCell id="0" />
        <mxCell id="1" parent="0" />
        <mxCell id="rd98MsW6dL-Mvt2Z-kM2-4" value="" style="shape=image;verticalLabelPosition=bottom;labelBackgroundColor=default;verticalAlign=top;aspect=fixed;imageAspect=0;image=data:image/png,iVBORw0KGgoAAAANSUhEUgAAAOEAAADhCAMAAAAJbSJIAAAAkFBMVEX4+Pj///8AAAD29vb8/Pza2trz8/PW1tbs7Ozg4ODw8PDj4+PU1NTn5+fq6urd3d2NjY2rq6s0NDRCQkJtbW3Dw8PLy8uWlpZYWFhJSUlnZ2c9PT1gYGCZmZm5ublMTEwZGRmioqJ2dnaBgYERERGwsLB6enoqKiolJSVTU1MxMTEpKSmXl5cNDQ0eHh6Ojo46Qms9AAAUGklEQVR4nO1dCVuruhYFEwKEqa1Cqx20rdWj56n//9+9zIQk0KK29NyP9b13r9emmJVhZ2dPeN6IESNGjBgxYsSIESNGjBgxYsSIESNGjBgxYsSI/xIAQjjSgREAQ3fqlwAItSwugjQNwhpBGgZFkguecOhOfhuEXZ4EYRrEGUDA1wARQnFCqFKa/+xkIpwVhBxG0G8BhDgqwrTI/kGSAOAsCIvMayOnAZFpLnL0b5EEOAmDrHXuLADSPPmHJhLgOI3xyfQ4cJD+Kxwpv8JenVFQTteTyX6/n0zW06qQI1BPNPneP8ERZWEBDHLlfPH3xsTsYV0hcx7DDA1N4AhAFITNbleTpUWuxuM6aA5GWlz1NAKUpIm++tJdBzuB569YX6xJmFzvNNIJ1BYomM6O8+MzudHELiZH6NBMWgDyNK576s0/TuRH8T6tKcIwuE6KKEuxWqDetgc9hqdNzTFL8yvcjCAL6yOwfO1LkOC+ULuRULy6zUiWqCLo3X2DH8W83sNXN4sgS5FcoWWfDdjEeyKnEafRVVHUl+j62/wo1G7MwmhoVhr0JfrdFSoxryle0dmP1Qx6tz8keHOzU2d/cDXSBhWxPK1rgrPVfj09HLaT1Z8OOu8PX6TRdL1f1NL3Tp6LwbVoN2QTCvGApAq6L6P6dPODfQu/daK1yjZygT8ogXolWxHzTQihzwkuKt9E8u7gt7CuWHAzayzU/DrWKYoLXcj8LfU7n+i5n9kEZ04TwJRPrvhemF2BsAFRKrrKjok3j0ymxRA6zpDKHghIfpU88Q8ZiAgbmh8VMxnvXMomxp5ADmSqAUtnM7o0WUtxRwmS4ScRMzFD/s+2WtFC0PcfDIbbNob+RtuKOBx8J4KYXdKhzy4TL63d9g8Gw7C9KTtyUv7z8DsRizsvuuFT2IqiSfAZtTdlk3jLfx5enGbCzvKl9coJZEjSjqYea1Gyn+HQZyKXM1KQfHV0G342GL51NPUfNVEUDyxrcMoX6VYb9hY0jTZ3XU3n2nGCh12mIKcCQwrSm6yr202j4q6r6UYbBDjsLQrEnFTAu93pqCBzuNseNpvNYbs4MochfxwXRsGg0hSJa5NQrbt6Df/U11vSfNXVNuGP482jQZep0NggX6R/u3pNBeT/xM+LbrHrY86Q3zFAOqTmlvEDsDh+AjDdeyJ+vr+5+dO1ogXDZ375GHIjgoJf8IRx9L1NKaUom3N4kx9nKPTvIdUaFCDVY4Knrjmkl4vZ/Yzi8VP13o1cMOQjksXDMcQpW0fqMO9i+NbUadSKdSFuqAVDipqIq2xK5ezQNSODIJlw6xqpUMlG3EMwoKjJ+AVgIzsUtHUZ+rYfI23ftFPZhlm4BjzzQcLP+4ns0LSty77/bDHsOBFfZJsNG4UgH4yhEKUL2aF2RUVa2z7/vv+Ru/bgXqdQGw6uyofJUAxRyG2GT2pe2jYiX6N75EECDyB2eSCKuosilDrgjTzzs2IYUYNwXHJRWq+8becMpgZjMovOOdyp53HNJ6qGiNFAEQ1kYh1ItM0lrhoNZHzGqEIgISXrDlntoW7v4FoNzMIwvrQrCsehCnmqNIb2tHhz+ZEuh+Q0PR1MfnCiP06azkF82QAGgIvQE6MPDRvT7UbvcTBRVsRXjYZ2PL6udf0NbJtejvr8AeEldyMKdIfD/MbAaluGcRyW2512Rnw0r8el1v51f6iCuEg3c1PxaVgN4stRRHGgr602v0sDn7Hvt1Jsh74gvPRSAVMgSxVBXK4np0TN3BqBfOSYCLq8bhJvX9tKOXDAhTzfIFL+0GJxvI8MW98BeNLkE+wiIW+zywTa4CAWf3Dq6M3nxHZzv0ROgkQOmaZ+ohW8WL+6YVcteLGtWDvTNo6urMmSChudXG4jv/1mnEz0oMXnCZGrkWtqxaBexN0WhfwUdrkElXBPt/uHxephb8VXOhCV85fVYnU3OUhh5BBCr2IzXsDdJo3cPnTEJDi1sB6Awo3lmEXp8zm/uw1Ln71rLdVrERr/bielN4Hin4Hj2eLcOPskAr4LoXMT/vnRBGrAjodLg3px5nAwFGBG0NmHTmvijxku+QwnZ7ZLYaHN2GL+5oiVtw+AbRG4kYcqOrNdCnN1pnD1oNtj1geGJ06AX6XQme1SwiHqjs5b/BZD347sp2AmVnhmvSbhlwp3eN5DZ6/7wBVgJJdpcF7LW8JPZbc+6jZEZZP7x3lknhvk6KvulquWE9SdwMDDFs9sW+xk6PR6lnKFmZf5Hfv9I3B9yR3hODxDV6yJMuI0r091kJRz4h//IYZKCzeiGDxl3XBFqFh3/SthuHf0Ve0o4yipz5uN41vu518nQ2UAeGz+PlTfcrkCVv8iw/s2hi5x6lSZRoYXYOhyeo4M3QzdOtPIcGT4c4au0MSRofs8HJBhxm9PXbKuiTadpjY2nT6H20swzLmpzWXtdjPct3xYGypMl007Q+ZDhmc2tgkrBnpy9WDt6Ku6WzQt+0fuFk6GfBWg9Mx2mgCw/lWuLrgY1vdDN4t75/3QyVDEWwfntbWBQMxF4PCpbV2d9fPJ2+LLVSWjvHt8aLnjO/b5GxbOmTMbvYGMzfc920nkZvgd2HO49aVv5twBUrguCmE5UJyr1D/BtG/BPI3+FtL+n5zdv0YmEcpOmznbjx3BeKeDPAIYgqw+aEF4fjcwc+JLImXTU22no30PzdiHWZ1ABC7iysdxndbso6YLqjPh4mQ07c3zeplHFyrugrJUCzYJGnax981PZxGsG3l8j3WQCrxcMQmjhsmhsWv+zLsiuI+haK6JT81MhYPgctFtANd1aMgS8r6aguHhm4vVOxhWxL1wqNN/xOllM7sBbkwjNg+wvYpDPHXVeqX5jDstigqHwcWrSJDdmGm+7MJUQ94n6elbEpU7U9N9S+vR8ZJB6keBqBBClZ8eoWXk/NxtTqlplh1sJW1J9Vh5ug5XPAplYajn1FvzSKdyv0na59IrDjuHv/dR38ioCIcrVkNL6yU6x9gZ0fT5tp9WiV4+EXq4KLcv985L2KrSdi85IoYtG4WiIBW3DZ6GH62dvab4s3xc3VEsHmdONzbDrvA1gnlaDF6nBuWEY2Mdlm6vwylYThvXRSpBh0509miRtiwImxzzdVcVujY8v6S+we9aKvBRjqkRfxhOWlerG3cs8L++nOAwzC67AQGtBczgKADMqpUmRq2SYn5/IrvXvWHkgIzfBTcgqwWcxAFHnGQRNpcPQHkRJtouYpMRbfbH1uvfh2lsHidZWQYXPCEAipIgJcxkGec8DMh/x5YMQFGcBnkt5+V5Xa0f3AHPz6uvjTP9G0bk7x3dg2JN/XSm2fqLsVVoJUoc64g0Dq3anrx9Uh3m+7vV4u3x8W11t59PS0eNUx2gO84S4SxmxaWDIvmRvCUypIhadBK6V+zFGsXk104ToU2781OvIzSIVbmN+RQSpt+XubXq2cbRcWUDtAR0mHl2oaGeaLcbkguqPogw+m7NLHp9sPvX6GnmVPoBzos0jSOLZS+0Z8eiwDib4PdSFJFWSI/fQnGekTVvdMMdWw4wkU9hEGfHA73J5SijoLYBnOX0R/YlrzVGLw/MFZEX3xA4ZAa1lRAdpJ78dP9y0IbQazWe0IrsRBoEKSHgQVOuQNLRhF87hKeNBuCKtC7mcWv1wchaFfogfSMmE+QhkJPnb8yz+75Un0VdmSyEJc7pSZpW7CzFOIpwQY4bsorDICzZGApP2+2pDFmgsjJp8lPpG6ZwHCqLUunK+1mqO050rJYTAJRoRFZfXBCWRUwXIlEakCg60Zch5rfS6vmV4POFdaPI+hKUlQKhr6V0NqHC2PSTCzB0kKUCHtEmQPnqjjE0n8m+BqVXgbvngr4M6ypsuF3tukV8iXisK/QVFnmWULAZkl1i84cxpgotW7SsDWmBj80h3VtcYeRPxeKhES900GDYOwETFUKYgC69ciY2Q0EOXyo6Q3IMUyRhShTxiHWQCBv6QUgFK92QYZqwNqRFUVTdDPOIKi7yoURVDOOcDFFQQothWsX9Xj6gplD3Ai13k8m+cb1dcYagKoi2FmF19yH3fZykhGRG9I2IZXBDTNTWhP4sm5ApLHWGliwtK3JDrB9KXxaRhVUla/Y3GMIoC/uYA0AsDL61j+StlPI+1jJ1RSBFUVmaq09tSFXVbQAXomq+JphPDYZ+HNuqKzlk5I8Nhuw5PYLckTgKVfbWU239olm8aiI/ug90dMr7LfSxaTA8AouhX5zuH86FQ0uaoV8jv+kbVO6FNq9oH/CELvhzhqdnm0ilQVZRucGW3qxmUc0BbLap92QfsiZDu45mC0PWEJ6s2aCAL1LpcdnYzl2Vbp7WDOmVfnW7XC5epo3g7YqBJ0z52WH3uLxd7Df1+ga8Qepg6FOL/2R1v1w+7rah6kRA2ws34yKVX6ZpXycyFCexLHhxa84PhVyndSRQpYvZZd1JkeOzZV3QzOITuUmFXvruYhjr/pq/c6Ep2/bKN14F5dRzP29W1nGGhMiwrZWYwMiMr39ShT240kcjiI3U/bTxKOs8hI6AD94X233Au3EyQxFSImO7nBIfkrVGsFxxFpWjELuUQjMxynZWZtXJ0M8c5fl38BcYymTmHf/yu98JNlGp3ZUbtYKF4u6oM8QHr4WhHzlt/6tfYAjEa25Ebs7RlLRmwqXuS+JFdgRDMQpPf7QW920MaU1hPTdIWyIT1z5c9JtDbiSAoidHU9Kg+ovPX0QJB8lUKbNIm0PaycWG6G1eVt83yzaG2qbdV+Sh2UZt9NTfEB1ouxNf21KNiO/PU+9QPBXWBzcnMlRrdKVOgP/JzvlQr+tZm7blil3Uic0GQ7kulipiQAZhieQUET2o55Odeg8Wcyirxh5nKNRzvbaVlFKRrzGsg1Tq4l9Z2z4UP840xU9GRFY6YU2nOdmW0Zeh0F4/NOsNlOlnU42hFjpCtpmQk4c2hiLLslH0bKJPm83w5Op8fRmKEjzNlBnx999qhnqqN1STeNfCUP1SV6fkTcDNEJ+cXtqX4Y63a0bRiBLlz0AxNOKghSazbGEolrmh2QsJVdgMIxyHJ4dMCYYnSxohOZPmbwWvWP1keNBEfPST52b44hg2VQZsYzFMqqCHO04w9E5lKNoZduhbxWumDXwNueKwm+HCOSx7bWabVoy4jw1DnBayZ+7yf5qZX3TVUO5u1XDPnHMsGWZuhksnQzGzE4thP1sbiHlnhW5k5IJYkKvZzfBwjGHiZuhe2oLh/qcME37FF0rFh8sUAf2vCcV+rlbz785hJ8Mfz6G4PTUPWANaFdVOhqUuc1wMIzfD+y6GcwfDXq6ZiN+m5QZz5tnL+/9aXZTdDMNa825+LmQpOU6cDB/UADkYTi2Gadjrrbu8em6tUDsSd9QbOQKVW260elW8Z1q3aoj79XvLeShG0Lh9P2gz22CIQ4dHumOZilJJcpkurYIIijytujO3OgNVGSl6uRQMjdwuoQmtWhiK/u8bOg0Uw4YshnTQi/hkikDU6VYapbFOoVqjzPoiBmKhN5A6yYv2lOZLO4Tium5hKK4WHw1jXSpHnL3fzWBIPcEnL1RR5LmulbRqylNlPvlky/lTWzvyrz3Xv5MMtWuC8hzRVe7WvBdyCDWGb/WwujTv6PR0E3nma26LrfJ4g0N9SeeCQKYP8POAWS7FF2f6SrhZ1mEP9QZoYyiHQJM10s7j8Fv4PatGi/Smpnlitd1UaTm90wLWxOpV7x/ZCmtfJQ0QmwbDm48ttx7EyiY1bWWokjMnYlwKufdFvnHTIsz+2SNggb8rDjqSm3SoNxqpEqbPD/Pt+sVIjRX/yWd6ubpb1QV2nmE7w9q6tfjabvfK8PEEGgyfbpcEu372UvYuNb/xHBcW9Q7ZORt8NvTbyNGIbd02W5s7U1UJrEZVt572Uk8PWXEmU1Ls9SPElRn83JTIGbDiAbZ6Vy2Gdu1XCrUvof7b/gxBLmrmk73ozGv+NN6vNrFazDJft3kTOYQNitvGZNgWYccsfmgCWzcw92fooaR2hNiJBjPb0p82CwM9bdUnmuatJ23dG8ttac0hUV6N0d3rHhSodWvVdx8S4EJ7AXW2fVMG6Kc3/WXamhM0fZEi5Glx0KKNaobQR9OHv0The17WWTV+PLsnuKU37S1zFcykzYqmqnxJmfrxuDXdmNXL2z3D7cs3GAIcyEwJnk+ZpeVmU1aJSEbin+Gq0m9FOW1TGd5p8/aEoui04EVBJwrpQwtU/0b/VEffSmeipnVXD+I008L7WuC+H/4AMHS//ux0D6kESswA9SZQWGAAorp4uRu/zRCkaeUMCv3G269opmFbAC1N10nYmLVGoUJDltoNOuIzUeiK7yC7JSZ/NtfCreunfefVUCzRILH/FCSiNpT1/AHKw9SKC4Y4FFHcLQwhyNKK7FnnCxK8JKXBRcj4jIbp0BL7ZOhTPdSGBdt8O46WhnQHcY641PQQQjSiKdbv1CxSP0hihChPDyMck/+Oq8hiSF8NT4OXs7hIgyJn8ZkiSkoDj5RXD0X13w1lBD3/pvoGfdr3808AwllSsMgt8r+UxsVGlnUS4DwpAhrupZrgwGbolTQILKQBihEdojrSTUcu0h0cD9WHVYW8sTi5H0bt06BCTHMRWAhe61AgFkAq0k6kp7XBMMUiLQU0nt6A+ZdV6J+jW6x9VzhkX6K9Gsf8TThCV2A1ucHwLxb9RYgLCgyCgkbOsm18RS/b/g3k9sE85Au4zgBsJzsP92ajswAVZigOuIaXNP8m6hdFCILDvpDyDAB5QI7sSCYoFUH241SzawM9sgmxUBzyVtrifwMAtKWejhgxYsSIESNGjBgxYsSIESNGjBgxYsSIESNGjPhv4f9rlkgrq+/xegAAAABJRU5ErkJggg==;fontFamily=微软雅黑;" parent="1" vertex="1">
          <mxGeometry x="727" y="295.69" width="90" height="90" as="geometry" />
        </mxCell>
        <mxCell id="rd98MsW6dL-Mvt2Z-kM2-7" value="" style="shape=image;verticalLabelPosition=bottom;labelBackgroundColor=default;verticalAlign=top;aspect=fixed;imageAspect=0;image=data:image/png,iVBORw0KGgoAAAANSUhEUgAAAMMAAABACAYAAACnW8PcAAAAAXNSR0IArs4c6QAAAARnQU1BAACxjwv8YQUAACwpSURBVHhe7X0HYBVF1/aT3FRCSwIk9N679BcsFAFBBUUUQSwgKL5IsYvd9xURAbsiTUDsiChSBEGQ3pv0jkCoSSAJpNxkv/OcvRM2lwQSmt/3//e5mezd3Wk7e86cc2bOzPVbJCgtwD8Ey3P08xx98OGfgt9eQXmB5/yawBC8OeYEf8/RBx/+CVwf+iMXWBb85OiXIUG/W3L5/MdE88GHfwpXVTJkErOH+C3RfZIy3IiJPYGjp04gNuEM3HIzJCAQURGRKCahaP7CCPYTniSj2Knh5+fnU5t8uO64usyg3GAhQ77sOHIQMzcsx+LDO3AyIV7vk9wZxZ+En5EBl5xXiCqJW2s0QKvq9REZVhABZANhBo3tOfrgw/XAVWEGDw/In4Wdp2Iw8fcZWHpoO5JFKrh43d/f09vbxE2Jkc7YluhMwjj+6RaK5SuIDg1aoGujWxDpCpE0fqrD+RjCh+uFK2YGyxYHqv7M3LwKnyz4CUlpKTaxy4fEnuHyVykQKLSfLsSdIcZDGild7gUII1BSSFUAkRZVipfBkI49UCkiGi4ykI8ZfLhOuCrM4M5Ix8RFszBh5VwlfIgkICOQjPP5BaJemUqoWao8ogtFAoEunEtNwcGYw9h4cDf2iiRxU0IYqYEMRATnx7AufVCjZDnhD6pdvC/Zim3hkrxdjGrzoKTyMIuPZ3y4Qlw2M5AWOTqUId++WPYbxi2ZJT2+XGNvLtcLheRD14a34I46zRCev4DSqihLqvqQtJnebaVji9gWU1bMw6o9W/VcMtD0BYJCUDyiGGJPxyE+OUkZIX++fCheOBL1osujToWqaFqmMgL8KXPscn3w4UpwWcxAQjbq0YJt6/HynC+RLudqGEtoWLQsnrqzO0qGFxMi9hOj2MM8nkCQIew0FlLk7q/bV+P9md+o8W3nLHEkM34nI6Qr2/HEJdJCmEZQOTwK3W64GR1rN0Wwi6UwfynhKvCFeT5vJuP1/82Ml1O9fbg0LpsZSLQnkhPx6KQRiDl7WhmBoWnZanil8yOIcAV6XojnpWQ9KDOQvFPSM/Dnzg0Yv/BXHE6MlZdp32dSLUf+Z4gxTfBFk7l41JcuIcgvANULRWHQHd1RPaoMAiTq1WAI5n/8+HH8/vvvOHDggGh+/rjhhhtw0003ISQkxBPrnwHrtnjxYpw9exY1atQAHQgM8fPe+vXrceLECT13IiAgAK1atfIxSg7IMzN4aFV6auDzJTMxceU8HR0iYdYpEI1hDw9CeGAwXHKRKpFStQNqS8g1MtPmI/sxduEMbIrZhzQ5NzRM6eISbikYGIKi4REIFuLjSz6TlIgTojYliblOg532hcsS+8SdjvCQMPS7rSvaV70BwawQy/Xkl1ewrC+//BLPPPMMTp48mYV4yBCTJ09GtWrV/hGiYt2OHDmC6tWrIzExEX369MFnn32mzEpkZGSgU6dO+PXXX/XciWLFimlal8vlueKDE3lnBnbIcjyVkoRHx72NQ6kJSrzEmO6DUDe6nN7nq+F1J8HweroYw8eTTmPy4tmYu3UtEjNSkU6ilXh+8kKD/FxoVLIS7ql/I2qWroCQoGDp7e08aGgnnDuL1fu2Y9rGpfgrZj/SRWr4iXRh2nxwYUC7e9GpeiPqVpqnTSJ5w5IlS3DrrbeqBHjjjTfQvn17nDlzRomOTFKpUiWsWrUK+fPn96S4fiAzfPLJJxg0aJAyZHx8PLZs2YJChQrpfTLDpk2bVDL89ttvGDlyJG677TY8/fTTCAoKQosWLf4RJv6/gIsyg4fGz0NeRHJqqvTkBzBv2xrM3rgCaaKXsCNuXqEm3un8qBrJbGsygjIE+2b5zrxiM1IwY+My/Lh4Lo6nJmocGt3pEtFfMqkTVRZ9W3VG3ZLlEWxemKMSaqB7zs+Ksb1w1yaM/m0qjqYIQ+ostoX8riCM6vIY6paqKAxiM0ReQGLq2rUrpk+fjo8//hiPPfaY5kEidLvd6NixI+bPn4+vvvoK3bp1w7Rp0/D3339rmh9//BGbN29GkSJF8MADD6gKY3D69Gl8++23WLdunRLlzTfdjE6dO+l3Eu6kSZNQuXJl7b2///57JCQkoE2bNujSpYuqN+Y50tPTVVU7deoUXnrpJTz88MNabufOnfU+wWcgxo8fj759+6JXr14YN26cXvMxQs64ODNQDHhw8mwCft60XBhgOWJOx2qPrGqIROF4zrC7+6BZhRrKGKa5bYPaDymWG2ukN/9cVKJtcUcoHiSRHcuSl1OmYCR6Nr0V7ao1QGiA2BqasX3f5EUwb28cij2BF6aPw+7Yo8o3buGJWmHF8MFDg1EoOFRtjLwgXVSu0mVKq71AW6FEiRKeO3Z7UDo8+eSTGDBgAN577z2VIH/88QcaN26M7du3qzRh2gIFCmDu3Llo2LAh4uLi0KFDB/z111+48cYbVb1ZsWIFHnzwQSVS9uz16tVT1efw4cNK8OfOndMy33rrLTz77LOZDLlz507UrVsX//73v1WNI8O1bdsW33zzjcYx8Qjm7WOG3CNHLUIbVP7SMyzM37EBfSeNxMQ/Z+HQGWEEaU8SZoY0rFuYIgwBqFGmolKus6mp1uyIi8GrP32BIT9PwM74oyo5zGRafv8g9GrYBuN6PIW7ajdDWGBQpmRh4TzQMrA/NnjNGUpHFMXQLn1QNl8EK63Xdp8+julrF2saE3ILV4BLVaLAwECEhYVlEpgJRh1hz23AnjgyIhI7duzArl278PLLL+v9119/Xdvx888/V7Vq+DvDMWvWLCxcuFCJlCrX0qVLNQ/G27dvH8aOHYvdu3ZjxIgRen3MmDF6JBjnhx9+UAl15513IioqCs2bN8ecOXOUAXmfwdTVh7whe2YQ6iEBJUqP/unCn/HKL1/gSFK89rp0k3A2NDOIiiyCAgHB9gUPkt1p+EwM7L6TRuCPvZtEOqQr80hiNa5vLVML4x56Bo/dfAfC84nurXna91k2BT0n8xh0uFVCTlRdViTL0+26im3hr+nSxD6cuv5PtWvcTJtTwiuAN7ENHDQQRYsWVQYaPHiwqj+rV6/We4bgq1Stoj37nj17ULNmTSXqtWvXal40gNnLU90pUrSISo3ChQurAc94htCpapUsWVIlDsH4SUlJmDlzpp77cPnIygykN6U5C6kZboya/S2+WbsQyaLvUBIwME7V4mUQEhBk2wUc9SnM3jIrwS3duRnfr/oDKcIUGWQiueYSKVM9siRGdXsCr3V9FBUiz7tcKGmxDKlAqjDA3K1r0H/KB3jpx/H46+gBrZdCjvxua8V2vlS1Gleojtbla0svnS43LcSdTcSi7RsRIBGpquUWLJ+qDgkwLS3Nc/U8kpOT9ejU43mMiIiwn0NCcHCw5sH0PCexEu3atVMmINEPHDhQ71GqmEBG4pwKwfzNqI92BALaG1TFypYtqxKG9grVKcalDUMwTx8uD1mZQUAio0o/eckczNm6GikBEkl6LRq55QoVxbude+ODe59AmOj2HNpUZzuBEgKPnhCTGG/36CJJAi1/FA3Mh4FtuuCzBwejYbmq8ChETOr5Txq2sD5mH5747iO8OXMK1hzdi0UHtmLgt5/grQXf41hCXCYTuCXYJGKDed3V9BYESVmcyGO8Jbs368SdLWtyB0sYqVatWqq3r1y50nPVBoly2bJleqxdu7ZeM8RnCF6ZOSVVmYbSgQgNDdUjhztJ0AyUCJwP6NmzZ1YClq/alhKYl2EEHmkX8EhJc//99+Pee+9VKUSmY72oZvlw+cjCDJ5mx+KD2zFl+e/qTEci40hPy1LVMfqBwWheqTYCPSM3mTQmR75O293ifKCECXBnoFPNJhjf63ncU68FQvw5U3z+5fMbX/CRuJN4+9ev8Ow3n2JLjEgCYSKXv0vzoPcrDfe+E0fi+9ULkZiWggBP+Uyvucm/GtFlUS4sQvMjk+45clAkE2ckcg+OQPXu3VuJkYYriZa9Non7iy++UDUlPDxcR3kMWN7o0aPVMKZEGTtuLFJTUzMZhgYvcejQIb1Wu1ZtNappO9DQNsRPOL87wfw4yhQZGakGOyfdyABkjBdeeAEpKSlqT7AuZEzmbxiUdedoFm0hH3KGl2QQwhO1ZuLCGUgU/YK9K1ek3RRVCW92fgSFQ/J5XhQJPesLs69mDYRLirirSUsUCyukDGKu218sJCafw1cr56Pvl6Mwc8capCIdoSKGGlWsgSLBYppLJVgPGupH3Yl4b8l0PDnlfazYuxWW9N7syckXBF0yqhcvq0xCJEjesQmn7ZNcgs9333334fHHH1djuFmzZqqjM9DoZW9PpqDxasA0tA84GsRA4qQ0eOWVV/SemRNgL04dv+PtHXV06bvvvstiDxDO706QAThh1rp1ax2RYr2aNm2qo1i9e/XWepn8ONzKUbDnn39e05KJihcvroxIiedD9nCJ7jpQerpwzznmb12H6ZuW2RNhQoClw8Lx9v1PoHCwLeqpn6eLXv79moU4605Vmi4RURS31WioxG6w6fA+rD6wQ3pwoFODFogUI1nvi5SRP9XtF+3ahNd//RKzt69BouRF+6Om9O5P39YNvRrfilY1btCXd/DEUWUSlk3GOHr2NH7bthYHYg6jYvHSKBxqj/oQW48fwuaY/XpuSY/ermZDFClQWO+ZOJcCdXVOtHGCiro/CZujz5xX4NwDCdHkxREhqieUGDSgeZ3zAB988AH+9a9/aRz2/pyH4CQdR32Y50MPPYR3331X7xH58uXTdJzh1roLQ/DIskj8+/fv1zpQrXLu38A4BQsVVGlFW4LpqdZWqVJF68/5DKZnXRh8k245I3OegY2fJl1q/0nvYdWp/QjK8FP9+43bH8RNNerrIh02IUeEUtJS0WX06ziZnKhzCQ0rVseHXR7X+QaDL1ctwCeLfkaQdETj+ryAyhHRcpXEbGHLsb8x6c9ZWL5/m/T4koFQeJQQ7ANN2+KOWo0RKqqUTRCSRP5tPXkYn/75C9Yd3IU0Wu1yzV8kgkRCoYAQ3HfDzegi0icsJBRjF83El6t/V6ahwc5Z8Vqlyjtqlns4e2lDQN6ExIkxTsJRMhhC9ob9LHY+F4NhgJziZ5c3kZu8DXLKwwejJrEtJRyLj8X2E4dU9aAxW0EM5puq1bUjsREvoyHNa2J+MUnxGDVvKgZP+RCL929VT1QK7RARFfc3bImOdZogODAIflwTIWXRNKF0qh5VCsPveRxvdnwI1fIXtVfPSTrW5kx6Cj5bPguPjB+GGWLwn0k5K/fkQ6aRPAICA1n8ZYGEw16WwRCpE4Z4CWcc70Bkdz27YJDdeU4wcXMTfMgZ520GaactR/Yj2XKLaiMn8ndT5TqZDUgCI3imV+zLlwTnJs6lu/HN+j/x+MQRmLZxCZKsNF3rHBYUor03h24/Wfgznps6BpuPHhQ1jPKDBC09pASqV2FiTLeuVg+fPvI0erXogHBXCPzSLbgY5P7BpFgMmzUFv2xZ4Zkd90OI2BBF8hf01OTqg21DVWfBggXqr3SlxJYdwWZ3zYdrg/PMILR+4NRRbXiO/dNwrVmu4hW/iHSXH16fNh6j50/HiXMJqr6Ui4zG61374svHX0PvRm0R5gpCil8G1oiN8eTkURg57wexC84gzRKmYPGeKrAuBQJD0LtpO4zu+6LYKY2UcSlJuAKO0ic1PY1dtsYvHJofhSRQSFwr0I2iZcuWKFjw2jGdD9cHWZgh7jRHXoS45BMgvWqxwpHaK5tAmiJdKm3lksBChTaPnolXoo50heLJmzrh8wefRqty1REdHIaHb+mA0Q89gw4V62lPngg3vl/3Jx6dMBwz1i7BWSFuqiOmOEoKVqJ0/sIYckdPfPDgYDSKrigSQu6JRND7GhGoWqZ8nn2TfPj/F8oMJFSSm1vUE5sVbOKnOzVJyYTzyB0nMNY5sQpcgS50rtkU4x97Ed0b3SIqj70qjZmyhIrhxTCk80N4q+tjqF+kjLpiH0k5g2F/TEX/iSOxav8O9XNij88KM41LDApKsLolymFkj/54tX0PlMwQtUtVPAZgzd7t2CHGt0qX6wAyLecklHk90smH/zuwJYO8N6Uh9qweQqc6Q7eIKwFpMESKeLVzL/Rv1wVF8hXUIVveMOoXjwyckW5eugo+eegptKhSN3P/pM3xMXjyu4/xkqhau+OOqz3h5EV+DRR7on3dxhjx8CBUKljUviHJT7uT8d9fJutuHYznSJZrGAKn2wO9WOlXxMkrQ/TeeO2113Ts/0rVyyuFYUjWky7irDc9Yjl5l13dnfH1PudvHMGkMUHTOK97xc8SHOm8w8XgXeal4jth4ptnP3bsmA7TXywPZQa+Nr68iML2eDwZwy3sEHPmlPyXTHlN7+QFnhRyKFEgXAmWORnizwI51d5bQojLhYIF8qskoFtFAculQ77z92zEk5NGYezS2YhPSbIX9Mh9kxOlWaWiJfDaPX1Q2j8Mfm65L3H2iR30y8ZlWpu8PINpTLpOcH6hVKlSOnFG36Lo6Gj1FuUaBM78OsF5hIMHD3rOrg1YL0Mo2YHX6eD36quvap05/8DJwIoVK+p3unRv27Yt8xkJvhPWu2rVqqhSuQoqVqqYJXCtBeconnrqKZ2V18k7afznnntOBw8qVc4asqSXcr0DFx05y/cGmZYTlM40fyz4I8f4BmwXvhO62nPmv1y5cvrsnKPh3Mt///tfnDl9Jtt8ztsM8mQVipVUHVvXIQhHU81gogv8gEjMYrSSgHmdk1sSXYdJ9dwTnDBMYIg3O2SmZSPJMdgvAP/t1g9NK9ZAqH+g9PQpmLJsHvqNfxe/bF2lkosSzIAPUzWiGAa064pgqTSlCJn52xXzkZRKBzvvWl0cn376KW6++WYlnCFDhqhn6Lx58/Q6F/BwRvqee+7J4s59PcCernv37uqS4Q22HRcYkVk//PBDnbGmEx9nsH/++Wddi8F0nIDjRKGz53a73Tq5R+/aRx55JEugFy0dDH/55RedxHvxxReVYMkgvE8Gc4YmTZroZCTXe/CcLi7O0KBBA0+N7To7QYKm6zrbm/VhYF5JZ233kosh+VyyLqzic7IdKNH5XDzu3btXJXfrNq1VUlwATrpJgwg9W9aR07FWy3efshq+O8Bq+s4Aq8voN6zE1BQrTW4KYVnpUut0iZzsTrN6fv6W1Wj4k1YDCbe+/5z144qFVkJaqsaTh7EmrfzdajJ8gHXj0AHW5hOHLenpPekvHhjvrTnfWPWG97dufHewdTol2Tqbmmr9tm2d1fXz/1hN3x1oNR0+0Gr2zkDrqSkfWacSTrP6WUJKRrr19DefWje801/q11/iD7Dm/LVa65YbsP5CKFZwcLDVs2dPKz4+Xq85IQ1sTZkyxQoKCrLk5eo54wiDWMWKFfPEujZYvXq15e/vr+U7wfJjYmKsMmXKWNKTWiLVLOnBPXdtME5sbKzVtm1bKywsTPPiNYbdu3dbAQEB1ogRI/TcG7wWFxdn9e/fX8sfNWqU5m/SOwPbT8jLWrJkSY5xnMGA34X4rYiICEs6z8zAvIQRs8T1BsuRnl/jmnQul8uSjkvfE6+b0KNHjwvaJlMysMcuWqAwapUsjzQRDRyrF+bA/K1rVVIY8CuHMekyUSWiuEqHU+nJGLroBwyYPArL9m1HKodEJZ5ZBHQ5MMnkgRAkKlabynUx+uGn8UCj1iIB5K7Ub3nMbkxbx0U8jgoKAiXGPU1aIkhn7fyQKoc/dm1SKZEbsKenf1GjRo1U3BqXCSfossHemdKBPe/WrVs9d+w6OyHtnBkuBcaRF57r+E4wPlfGUVX7+uuvddiXk4FOsG5cJ0H/KrqaMz7Tedc5O5i0VHEoHTjHQudEc88Zsrt2sUCYZ+YKPmHYzPPcgkth33//ff3OdHRRoXThois6NVKdMzBLdJ3I0lI0Wu+s1xxh6aICyZ1Ul4UxS2fhWHJCJlFL1fVDF4ePHxyMp27shGj/UL3218lDeHbqZ3jll4nYl3BS1yzbaow8UN7eayZYLpmKLuT5A0PQtkYDtRXkafX6iWSKTnvYNxNyvW7JCojOZzsH8iF3HT6QRaXKCWxENhSNZa4xNu7XOYG7UxAzZszQo/eLpdHK9dRcjzx79mz1JjXEbmDi0tjjOgUSKol5w4YNqoqY+3TU4+Ig6vY8FymgzoTSo6ueTM9U+krdfffdWdQQb7COdOSjC/j83+drOuaXW9ApkD5SVDW4lPVqgmrYTz/95Dk73565waJFi9RWMuDSWKppZGC6yrz55pueO9D2Yll8FwZZuw1Bs8q1UC2qtN2LSkWOnjuD4VO/0EU66hYkcVhBunWrX1DjVhjT63ncXrOJLv8UIYaFOzZg7pqlpEk5t4drWRDPc3o05stqmXfinCiz28NOKWShZTDYL5BXzsPkHxgYgNJRxfU7F/ecOhOPhBR7XfGlQKIlsbD347Pm9EJ43Xiq0j2bMITOxqadwbUR1JnZ23ELFxrgfAkmT8alJKK7OA08rlOgXss11vRKpU5Og5XxRD3R/OhVy/TU26nH8xqZhLt6cKSLToHeEiE70BieNHlSjs93MdAw5bNmq3tfBvh83OmDdRL1ReuU11l9DnY4QcdHpjd50OmR0pBgeYzPo4HdYozrKZNu0L3bdEYhy94HTxQvLDmxD69Mm6DbPEpqJT5KDvbaLIhOdi+3744PHhiIxmWrqlqV6keikODyw5q/dyLZSqffKbh2jIVeEMSQ4+jRkTNx2H/yqM6AE1o1fSBTTf73MAHnHuSG58z+yAkZiRKheLg9zMp8k+VxuKlBbrBx40YdhaEnqWlM06De4CqzNWvWqDcrG5bBLQbbE088oT0VJQZ79GNHj+k5DW96rNKYY1wuzKFxSoORKguNRfb8TMO1zWQUMhHPP/roI2zbuk3XLRDvvPOOGvcU9xzt4RYxzJPqUW7ANHfddZf2nDk9X3YgE5BwmeZqbJdjCJKjX2aBEjsi1s3cuxQYzzmKx/fCUT8nqDZRqhlwVxM+A9MykA6zgBNajYtXQO8WHRFoj54pFh7ahse/eh/Ldm22J8AENhEKJBJnf2sUL4t37+2HNzo9ggqFiiFAOCYjwB/jF/yCQV9/jLV/71HC1AfUI9PbvTz3T+K6hn+PH44NMdIgLNhTuM0ApiY5wxmLaYL9A84/KCuafl4kXgxUV7wbMiewMTOd9PiRI1UhEihXtnFUhy7bQcFB2jNNmDBBF9twJIfgDhqUFLRN+vXrl7l8lC+Nbh60R2gD8EhpxaFKrq0guKaiQoUK2oOyx2O9mZbbzWgbXyOwDNaZy1QplXh+pViyeIluhkCwvdi58Jny8hxmMZMB7TrWzQRzbmB2IDFlZGUGiceoXHnbrHJN22GP0Ot+2Ct2wDM/j8dLU8din/TekosSt8ZiIRI4n9Cm+g0YJ6pTn2btEeEfosS+7fB+PD/5Q7wxYzL2nBF7QiQBh2/ThUAXbF+PxyeMwIdLZuCYlaxl0afpSnGOW+NTbZEPywoNPN8rXAzs2bk7Rl5essbVJvDTXomGnFkmwmsmUE3inIUx3igZqH87V86ZuAQX5FAlofQxjJ0TmBdfOMs36YlLpcsNTB6UCrRLyMyss3OR0+WAeVKlfObZZ9Q+IqhSksnyirw+o1HHTLhAMvCFMsudB6R3li/2oJZ91EkuCUv2bkHfL97Fpwumi02RoBsIS02U6BidyBcYjIebt8eYR55F+yo3aLqEwAz8um01Hh83HKOXz8bKmD0Y8t1ovC4MsivhuLpYRIUVQpmi0Zn55BVMp0HK+/tYjD2rLs/EkaVCYReOCuUEJzHlBUxHpz2O45tGdiI4KFhHp6j+sI6cWOLkHXtDwrxQHhkodXiP+6o67xkYqURkeCSfKddZNkdali9bjuXLLwzePSpHxtjzc17CBBq13Mnvjjvu0HkC2jPczsb7+S4HnA/hehCCnQUn8gjnc14SeYjqhLOdLmQGAW/9FXvYMxRpl1IoNEz3P9VFBkJgCVRrVi/AY2OH4ddNK3Auw616v0segOkpXeg7VLpQJF68vQdG3N8f9aLKyT0Lse5zmLB0NgZ+/SEW/b1dh3LzIxBda/0Ln/ccjPqlK0ksKTePD6ik4Hk38WcTsf/4Ec2CIbpIMd3RI7cwxJhXMA175pxA5mTjO/M2ZdEu4JaQVJmoJtBGYOAwo/OlGXifa0eWQ52XLlmK5i2aq9rmHTgaRTA/9vyTJ0/WWXdn4ETWf/7zHzXQWTcOMnA99gV1yANYVxr+b7/9tn6nVBs1apR2Ftk965WUlROc7ZUtM/B2XBJ/jJAzyyRwYHT3QXj45o66fJMZsF6sXKzEGznrGwye9D5WHdwpaSSyowB+46x2AyHwYd2eQNNSVWxPUiEKxgvwc6F5qar46MFBeKJtF0SKZKAbxWVDy7awYPcmnHKf1XNeqV2e5WqMS4K6KvXJnAjLG4yX27gGzhfLYVyOItEVguuXaVdwOJbGN+2O3M5wk4hIzOzpvevTqnUrJXpnMC4R3qAhyzp5B858cxCAW26awYUrAdUUqkTGGOc6bY6IsXwGbphAmPal3cTr3IGQz5kFUpW81odS1eSt5/rfC8w0OS0VbkfeRYPz4dEGrTH2wadxd61m+os8NJrdYiBzAc+W4wfx7PefYej0STgYe9xDlDa4LmHVgR14+quPsOHIPpEB/EkrP1QOj8bQzr0wtGtfVC1SEoFSru6dYZJeZlufTknGtPWLtW7yMAgWQ75DlQbZP2w2KFOmjI5qZEco3mAcjuIYX5+8gvMQt9xyi9oQ3AqGE0TcfY9LSen6QUlBvxq+k0u9bBrSrAN7W++4HPVhPs7Ant0JU38axjTCnYGjYMwjN0O2uQUlIbf8N2Bb0HeIo2o8ms3XDGin8DrnVrID62hAZjF7XBnQJnEykWPpvyLHJzu//NI+57pnNlXx/IXxTPv78EG3/mhevBICRSHnh6BUmL1LjGFuRbloFuLOJWHPyRi8Pm0CXvj2M+w8eVgX8XDRzb9bdtYZ5Rsr19bhXPvlSU5SCIdFTZ655QjWjWn5qFNXL8S+E0dUolEccJSrdolytnv3JUCCoD5MvZmjMxcD43IGluugzXaQuYGTUIcNG6Y9P9WO22+/XbevvBTR5wTOSZBYOXHnZEzml13IC/IaPzfghCalsMnb1NlZ95zANIxnAs+dM8y8xuFrA55zLsiMIDE+53Wcz5UjM5QKLWyvG5AorNre+BO6GQC/k6jqlCiPd+5/AkM6PYSyhYrACnDB7eIokD9Opp/Dp6vm4L6JQ9FrykjM3bsRSf4ZutD/jppNMFqM6u6NWoqRHWKrTAISsU6myTHVEivf84C5hqf95u5Yj8kr5srDywPLvyCpa99m7W2tzES6CFgmJ7U4wjF16lRtxIth1cpVKuY5Lp4XsBzmTTcBOrU5f3DEgPepSrjd0s2IPWbqYuI568ZrVLPoPj5x4kTV7XnfGedS8C7/WoMDDZzB57Y8VL28A2eNDVg3dhYcfqZUYwcy7cdpGszgAifZjOTiOSWJtp18p0TgDoQ8mudk5+FE9swgiYtHRwtx2rOpbM5Nh/aIFJBKsadmZhKo799Wpb708M+iX7PbEO5HA5WRxBCTnOMSz+jwpr98GpaqhA+7D8DL7bqhpNgFmZ00o0sZ3BSM+6r+uGohFmxdqy9fKqBDtxeDZiNxOKH388ZlGDnza3tfVymfBn+HGo1Rr0I1jZsbsKE4EsQwdOjQTNcHJ7RNWF9paE58cXiRLyo3xMQ4JhAcXeK8hMnTwHynqkTVie/CwBjoHEp1piEhcK8mqhuc/Wb9CGccA15jeoPs4lxrUCoMHz5cR6k4aOAduLeUAetHPzDG5Yw/R7Xuve9edL23q27CzM6LzGM2biNI/GQejobR+GdZzIeB2/rwnTmRo2SoXrqibhVjsOivtbquQF8hL3sCX2q49PAPNm2LL3u/iPaV6+sKuRTRWWhzlMkXodvNvHd/f93gizPakoi5CGxG49KbP/dswWNjhmHkwmk4k5asEoMTZSamAeObQJBE9sYdxyvTv8DIeVORmCFmv0gn/l5DrSKl0adVZ7VFiNwQK8FRDe6Qx/h8IevXrb+AWOJi47RXW7hooY6GeOvfuYHm37GDDityy3hnGZQI9E+iKwfVCSfhUjfmpBy3p/SuF3+YhEOT3PmbvjmcsPOG8cshgXACjzYBG9TZa14vsLycynTq9wZ8XnZQf/75Z+Z9GvV0CyFzUe00s8y8z3alrxb9kmhDsCx2GuwsyBBO5MgM5QtEonqxUnaPJGFv/HHdu1TJl+3veAfs5elIV6xgBF674yF8cF9/9KzRAs8374xJfYagffUGCBbi5DPrw0saBvbmO+OO4cVp4zBk2lhsTzymbh5kBKpoJYtE6SSetICWw/Q6WmUgX+fsXIuHxw/F4h0bwM3NjMSpWTAKL9/TC8U8uwDm1ODZgXGrVqmqejwZo2mzpvpbaPQN4u54dBPgTDAJio3do0ePPOXvBDcgpopF9w3OULMno7tGnTp11D+JIz5UfczwJ8GZaNaHDEuVjkRvRl4I0wtSTWAvSncO1pv5caKMk3gkkArlK6ihrrPtUn3TTpf7LNcLZF6nhwAnMTlzT/C3KujaktMGDWQUOmCynb2f84Id9QxoF/gFB2LJ9o2kTr227dghtKrZEMEBgbZ7g7agfbQ/5C4/lCgYjuaVaqFW6fLqEsH7KhEyY/khLvksJiyaiffm/oBdsTEcxJU87XjBksu/ylbDix26I1yMbak1kyhPbD+0H/O3r8sk+uRUkStygy7nbuEbPmCz6EoY0uURlBHmNA/siZ4nUP0hYdJPiT0sR2noz8KG57g7F/lwnN7ZqOx9qNNyUVB2RMW6smfmKqz69UWKysshQXMEi16oHMJ0i3rDHbtJ7FTX+GLpP8SyODNO8D7jcVduqlm8x9VgBMvlIABntvlqqTbt2b1HR284JMpfHyKzcPtJ5wgMf6iF8yCsO+uTXf1zC0o21ptMm1ffJ4LtxNGf4tHFdX6E+j3zYm9OCcBBC97n1vx0JecKPlMG25YdFOPmC82n74sOjewUOEdCb13vuSCmzfaXeyh8WJnT6anoP2EEtkqPTT8llzsDbSrXw7OdeqKgS0SRlJ35kKbD9npmXtZbkh8JPTndjZkbl+OrFfP0V0LTRZ0yozwBwgRlw4ui382d0LRCdf0tN9ZFKypHznRPWTQLY1b+pu7h3CiMpgVLIHMWCS2A+5q0RpcGNyEff21UK8j7F1Qr12A7EKyD+e685jzyOoP3dW+Y9AbOc6ZhMPmYe858c4K5b9J452PUIBPPHAmTxgnn/bzCO7+85sX0Jpg6mzyyu0eYI8F75uhMZ+BMZ5AtMzCJJpPES/dtw4s/jlH1hF6i7PnbVayHQR26oWBIqJ4rpZlysuavFZDqqAqz9tBufLZoBrYd/1tVJKpCnLXmkGiB4FD0bN4Ot9dphsKBwZKPPYqlv+MmR4ZkyaPfxBHYfvIws1bpwB9FLykS4PbqjXFb3SYomt/+ZR15UvsoOP/tyuHdoE5c7J4TJh7jmO/Oaznlm9vr2cHEJXKKn5f8LoWrkRfzcOZj8jLXsrvnhHcdTH7m3DvNJX/TjT3vN4t/w+cr5+g+p5xgc6Wlo2ZEKfRpfScalq9q/0q/Xa7kKOk8XwlLeqOD8SfVF2nhtvV2j87r8mFvTjWKIz49WrRFVFhhkRJy3fNwznykMlh+aBee+fYTqRMZyELFyOJ4SqRUpYgoHba1ZYEUkPUZrzq8G/lKYfIzuFr5/r8AZ9s42+Vy2uxSaS7ODPpP9HEJI+d8h1//WolUoWCVEkLknNmtVaI8bq/ZGHXKVULhsIJicAbAbaUjITUZ+w//jQWi3y/d9ZduKelcBsq09aPLoU/LO1GzeFmRMPY9VYs0OCoqFeFmYi989TFWnNirTET7YnCbe9Cl/o1aTy6TZRpKKkdKH3zINS7KDAZkqFQx1sYtm43v1i1UvZ+9s+rscj9IFJ4g+cIhwEAxCKkSnU06q0YUf/eZbhtCreAv/ZPgSxeIwKPNO+jeqcG6URnvK83bDOgAJQ7nvictnaPOfaliJHPuIbpAOL7qNUR/OJ15UtIQPmbw4XKRO2bQf5zYAhbt3ozP5k3DocTY84Sr4sYmaCd4X9lF0nLcnyMnD9/QCnc3vgUFAoL0BwmZyEgrO74HTCNUTtviu42L8en8aUjWGviBv/nwXNtuuKsO3aTtNMzCHL2q4YMPuQKp8ZJQAhOq44YBrSrWxvjeL2DwLXejQniUErSqLYwjR0OU2ltrEGngmSIvGlZIbIxqKBQQrMYzYf/PBpJJQnoKxojB/fmC6bpclKNNrEPTSrVwW50mmj+RYx4++JAH5EoyGJDIFdJrc5iO+6juPHYIG/bvwr7YYzgRH6uqEbeS4Xh2SHAoFm9dh2SO/0tiukiE0YNUDOa7GtyIUkWjbQIXhiG7aP6S92mxN+bsWIfvVs7HobgTwgUuMazt+1UiS2DEff1QNCS/MqiTEUz9fMzhw+UgT8xgQKtcLXOlOnsuQH9JR0/lovwZwpy2djE+WfATklz2Lhm2vxN0c+HS4UVQOboMiocVRkBggDpfHY4/iXXH9iMxLVnyZRnCKJqnP6pHlMDQLo+iRP68T+L44MOlcFnMQGQOU7F3Vubgd57aRGqYIU1uLNq7Be/P+RbHz55R1SZAJw/EHhBxYQxfptJ+Xq6TCRiPv/FGFYw7ZbSv2xT9WnZCYVGx1G/Jo3r54MPVwmUzQ25BUqeD34nEM/hh2e+YuXmFDrNSmtizyOcZy9nbU4JwrUSNqDJ4oFlb3FixptoLjKvqkSOuDz5cDVxzZiCMlKCdcSQxDou2bcCSHRtxQOwBbuyVEcAZarIHEOoK1K3ruUyzTdX6aFCqos5JwGu3DB8z+HC1cV2YwYC9OlUgP6F7SosEd4queUhKttcb03kqIn8hhIfm01ltKkI6byDcpMTvo38friGuOzNQStAW4JEdvt3Be/X6ctPYEgofM/hwHXBdrVAStI4McUaajMBr+jHf7cB/9nXPx+YYH3y4priuzJAJErsQuI/IffjfA+B/AP2wH/rwImjwAAAAAElFTkSuQmCC;fontFamily=微软雅黑;" parent="1" vertex="1">
          <mxGeometry x="570" y="318.57" width="134.82" height="44.25" as="geometry" />
        </mxCell>
        <mxCell id="rd98MsW6dL-Mvt2Z-kM2-8" value="" style="shape=image;verticalLabelPosition=bottom;labelBackgroundColor=default;verticalAlign=top;aspect=fixed;imageAspect=0;image=data:image/png,iVBORw0KGgoAAAANSUhEUgAAAYQAAABACAYAAAAaswDFAAAAAXNSR0IArs4c6QAAIABJREFUeF7tfQl4VNX59y/bZA8JSZQYFgnKIsimICIalYQqKWoolVgFFGn8ZPk3CBQLAgJFG2XrF4VHilRBC7iAisH/R1BkURAsoLILwSURJAvZM5PJJN97JtvcO+duMxOS4Dl9ePoI957lPXfO77zb7/WqpYYWbPllNTh7yYofC2z4pdiGghIbiipqUGEFqmvqpubr7YUgPyA8yBuRYT64rp0PukT64IZr/BAV4t2CsxdDCwkICQgJXD0S8LrSgFBD+HPm12ocOl+FozlW5BVXA15erkmU+opu54v+Hf0wqKs/ul/rA29X+3JtBuItIQEhASGBq0YCVwwQysw12HXags9Pm5FXWtMsAowO9cbdPQJwTw9/hAQIzaFZhCw6FRIQErhqJdDsgMCA4ONvK/HpKQss1itjnfL39cLwXv74fd9AAQxX7acrFiYkICTgaQk0GyAw8//OE2ZsPVKOcounp62vv2B/IHlAMBJuCiBTkr53xFNCAkICQgK/VQk0CyD8UmTDmj2lyM6ztQq5xkX7IPWuUFwX7tMq5iMmISQgJCAk0Bol4HFA2H3GjPVflsPaOrCgUeZ+hAXjhwYjvntAa9wHMSchASEBIYEWl4DHAIGZiN7aX05mokrXo4aaWxwUlZRwUyAeuz1YmJCaW9aifyEBIYE2JwGPAILVVotXPivDkZ+q2oQABnQ2Yeq9IfDzEY6FNrFhYpJCAkICV0QCbgMCA4NlWSU4kUv5BG2o9Yn1xfTEMAEKbWjPxFSFBIQEmlcCbgECMxP9c2dpm9EM5KJkmsJfEkKF+ah5vzHRu5CAkEAbkYBbgMCcxztPmtvIUvnTTOgVYHc2iyYkICQgJPBbl4DLgMCiiV7fU9Z6Hch6d5YczU9SSGp8d0paEE1IQEhASOA3LAGXAIHlGcz7oKjVhZa6uo8sJHXxQ+EiT8FVAYr3hASEBK4KCRgGBOY3WLStqNUknXlqF1jy2vxR4cKf4CmBin5aUAI2WC5U4ujPxBkW5INePYIRRmzB+hq9W2FB9rFqlDS8QASSvTqZEBbkq91FRSXOZVuRX1H/KI0fF2dCNKMrvioayeVcJU4W0EHYzg/9ewTiarItGAaEHcfNeOtAebNvrT99e4yTiDVLdS39afYh8diQYIzo3RyJaxaU5F3AufOFkLB4hMbgprgYhF1NX1Tzb5MYQVUCNuRsL8J9W2rREARuIsr4t/4egf5Bai/aUHK6DEtfs2JTIxJIn79zdDBeHxnI7yS/BK+trELGRTSO6/igaZA/jj0V2sb3jhiaXynBw0eblhHayQ8fLmiHjm18ZQ3TNwQIjKhu1nuXPc5N1Km9D3pf54du0b7oGOFDNQ58YCJA8KqnsmYlG6oIEPLL6GO/bMO5vGoc/8WKnws9mw7NuI9eHhPhMUK8kuz92PbqWqz79DjOqaRoREcNwcTpkzAmuQ+i2+yHVYBtqUmYtk+6gNkbD+Dpfp5a1DGsvmkS0iXdDUHG7pUY1UoFd/SVfMkBokcSUWFA/04+SLjbH0l9guBv5HJdXIy0GVZslw0UOzQAuyaGKAxfByIPEoiUqkxw4d+i8Eg35wcsRy7jj6/acErl3ZQn2mHRHUYWokdSV/iZ05dxz8s25MqGHflYKFbSXl0NzRAgbDpYju3feSaqqF2gF+7pGYBhN/jjGrrBuNIuUTGdfWct2HXKjOJKzzCpjrw5ECmDVa9S2lO1/IBtC+dh0QffI0/7aYfrxkAsWZOOR/u1xZuUAATeVrsCCPJ+RsabMDclDNF6ztMLxXhynhV75Z3098eZqQrfFR1099FBl636rfrgnbWkZcifUQAg6WNeWPGPSCRFGfkxtMJnCfi6E/DJm6rm1AqXoTYl3YDAtIPp7xS5TWEdGuCFh/oH4m4CA7VM4apfc1H2zUF4B5L9c9Cd8A5QUFVpdSw5jtVZ+OBIJUrN7gGDvx99vA+Hu64l5O1H+uPTsfq8q19CCMYs3YClI2NUOuAdvi19UxaA0FyAYO+XzKcLZ4XSDd2k8WGV4bVpZiwjBhnHNvKxELrF8syhVny1ohjjjnO6JS29J7sbUfXCU+QH+G56mJO9PGdTPu7dyZ9ST9J0WMuGLz5cHg6OcuHqj6Rl3lMAvxmzIvBUD9cutS2zEOVRdQPCtm8q8e7XDZ4i15YxlD5mZqfXKl5T9t3XuJSxEMGoof+RDyEyBp2eWwGfYPWbMwOtt78qxxdn3aPQ+OOtQRjVTxmAFFdvIZPGaDJpuAwGDT13weyN68nUoqSGCkBo2oOWBkL134InNATHESakhmLuYA3zBGkJ819u8gUkjw7AopEhCs7PUiyZZMGbsmXE9TfhnalhqD/TFRZZiS3PleNZ8hs4NhPZ1f93DtnV9Wg0rh0lLfaW5dhlTH7Fhr3Mp0kgPWNiEJ4a7MJZ0WIrUB9YFyCwspez3i1yudKZLxUve/yOYNx5o3+jX0BtWhcXTkVkQW5jOUxrTQ3M96UgPCml8TUbhTtVVtUg2N9b0ifzN+z93oI3viinmsyuSZ1VXnv5jyziyBjX0Yl/jcXIFT86DRrdMwFp5CMYMfh6RDf+lsnRnH0cO9auQDrPtNR1MrZnjsdN3CUIQGjTgBDniw0JzhX9ck+T2Sa/BntO1+KUShDFhClhmDtAS1PQ+e1zTUxeeHVZJBLbafXBB5MZs6Loxqz1rvj31igBXYBw6mI1Xsgsdmn+JtKk0hJD0SfW+QMurSzExeJsRATHICo0trH/itmPwd8s1UZqho6A39j/Y39mz4kivPH5ryiz1KJzpB/+MjIWnaKk6vCx3CqszCpFlYt+5zlJ7dCzg44wu8ZZk3bQn7QDmXISPWwetq5JUo1CKNmbjglPbcUR6T2LtIQ9Cg5ZAQhtGhDU7Pn2hbHQxgps/HcVlslu3/Z/DiR7frpW1JDOnysXEBT8BU5d8gDBC/9YHInRahZPnVMTj115CegChA1Ea51F1c+MNlaljIFBf4phlrfjOfuw4+RaePvVwkZX+YEdR5Jf4RH7YzVvLEXtkS8lr3hPnAWvfrcjt9CCWf/JhU9AKGkG3qipseGagEose6yzk/Zx9CcLVhLXUk2tsZs+GziRqqyNI5ps3e3keoz8wyqckLzQG0uzXseYJqxT6M6CA88nIuUdKZrcNH09tv+5O+edZgQESyks/qEuxFYb9CG4NI6no4yorKvFH/7NGCDCNRlpAkLDlltwdF0ZHvuyKYS04V/iKGrofxWjhnR/tcBvEhCqYSmmm2I72nsDovL4o5TvUQIfffkdbg1uRQndr8N05ILoAoQZmy8jr8y4/WXMLYF4gBP8XFVNtBf7/4LACC/7Ic7MPOYyK5J7zcO17a5HbVkxatavBE5/A/iZ4DX8IXjdN9b+bNZ3xVj/lVVy+DNQ+GdKBCJDnY2WHx0uwbuHq3SZqhxlHh3ijWVjI/Rvw8EVuP7xzbLnx2LriekYoKMXC2kJPUhLkLRxa/HD3/rU/9UxvD06Hdvq/ysv+3tZKKsJ3Xp2kYSt3jRlJeYPj1QdPe9kFnZvzsJ7nx3AgXwpIHXsOhDxw5MwZmwCBsRq/XS0ASHv4CasXL4eO74tbIq+MrWnMcZj4pQkxMdpRVe5BwiW3GPYsXkTtn16ADvOE+1KY2OyG4Ix41IwavhAdFQ3nOvYzaZH3AME1k8VvqLY93EOse91vXtjw+r2uM3pk69E1svlyLggneboiVF4vPFTuowH1jWpztmUdyD3usWRDByvcb0eCEb63WQrzy/G7BesOFnffS69Kw9VZWGzkoCiAQH4aJxDyCvZ4R3Ht3cV44fXZ7VTDbvO+7wQT34kO4fkffN2p7gcez6xYNPBGnzFmW9cBy8kDDUhJTGI/B5qzuEyvPGMGVskY3hj2pz2SNSMoGLJghXI/KgKW47V4qDM6R9KUZd39vHF4w8EoT/JQrNxZNi4R+zl/FJs2VSFNTRWtoP5kY0z+n4TUumizota0wSEfAKCZzYVGuYsiovypczfMHhzihnnl+VgW/ZiePs02VEZKAztMAHdo263y4L9NywkNV8/eNGfhsZu/cuzHH/M9OGSZWfVo+3p/501gRryNTz/fi7OFwcYAwUaf3lKe8qJcLb18jaLe6BDPyBofgDgHYbqb41Ykok1yXxAsGRnIn1mOtad0ueA7zgoDWsyUnCT4mGpBggXsHtOGiZ84OxfcTyUhzw0G0sWJKGbIva4CAiGwoApymvBKswf213Doaq9Y+wJ9wGBOlGIbkkYG4JVifLIIb6jd8KUKPI71M9ZIXxSbUWNoZVKYa1qL8s1It74Hfzwxd81AGF7Ae6gXAlJU9W2KvHVugpMJg1LLb/Csb/ksUFIJ2DgNxdNZMVl2LLGjPmn+Ul78rF69vBDemoIerVTASeODOv2yIScz4sw6S0CArU9obPyH+T4H91ZahbXBIQD2Ras2iU9gPX8FOYmhaEHbTKvVddY8e6ZZ8m+7+gn8MKDN8xDuL+68ZEd8MvIN/BdDsXC1bdHhwThd72VPf2nf6nAoi2/UOhquCFQmHxPCIbEad2M6yfxzasY9MgGWd6BCaOWbEZGsicMqp4DBMs3K5DyyGaZz0LHrnZNwptr5iGeawJTAoTdiP90PEauVQODprGje47Dmo1TMIArdhcAIXc35qbOxtsGI7863rsYm15JdDsD1SOAABtOrruMB6VWVCDOD1/Tj1qK0QIQ6r4mksNCioD6Wcd3LXtEOa/ABUAgAJ280IqdRpkW6Cb/6pxwJMYogIICIKxqV4lb/l3DzRZ3lgTz94STv6dpDE1A2HyI1JxvZfqNhoxvuMYX834fpnr4/lz6HfbmrIO1xgwvUn9vuTYZvaMSdO0eizA6/GOVPeqpR4wvZTirq1hM23j+3R9w9pLNECgk9Q3E2EE6k9Qsh5F+22Ssdrpwd8GjSxZjdrK7N04PAUJuJqYlLcY2nmJA5pshcUyjKMC5Uw5mHYddiR62GNvXJHJUez4gPD19Mg6sWGUIfKIfXoF9z9/Ose8aBAQ3w4AHkMluE5nsdF4JuN+uZwCBuqYDoA8lRUm3jef8FYAAJQCt3yFHcxjP5MUe4+cWGASECnp+NoX0Gjs+m74jteABDiAMjifOqYPVhsYz0aXiS4dLhSYgrGAFcOjwNdImUH2B4VRnQKtZbWYUWS4gxBSJQF8PGm45A+8ku/W6XRfh5WPSDQoDupgwnQro6G1KYaf290N749GxozHi/oEY0ivGpUPGUkIOX3tnF7Bj2njMPOQ4s4FY+n46Rjje3sk5LOVJKsWOqYlI/Uy2Irr5ZyxNw6hejmstxYnN8zBh4QGZ1hOD+e9vxcRecqnwAaHxqdCBmL8gDSOGEXcT+0tLAY58sharl+/EAafPK4YirDZx8jCMAALfUQ/TjZi4YB7SRhJAN5z09A0eWL8YM1ccRo5kWUrz0PtFeMhkxIbjmo14ET06AMFaRU7GetPLxUpMfrkaByVL8sbaZcHSrGQitguz29fJQVncYMe3YOmMKmySvMsS6EKQ1MHhL+k9CTFec5uMrCWY/7R8XqRQ9TZh7dRgqZ+g3pzzLJlzJI1yKb4mjiLpqWQEEMzIeqEMUzh2m36DTPjHHwLRLYpdZMm3kG/GV++bMfmQc/CAieb8X05CILsg8LKmG9ZwZ38/TEgk8j3yj+T9XIW9H1mxlObCO8kXzidKks51b2oCwnNbivHTZWP6zlKK4XeVjkL/T63uydIySkQ78F/kFxQiKrI97hhyC0JDnKODLhVXIe2Ns3WL1gkKnSN88ffRmsHYTVO2nMHbEyZh7rdaAFrnxIx/KJ4OyCEYQLdyY7dQF6OMcrfQR/ISdjsK2ZSMN/fMRjwXj41EP6kAQlfypWwk5zpvDCWNhUw235LJRvqKAUCgqK9kivqShPKaKIktk3iPFKK+uKa0vn/Fvk2jXTYdeUxDICs4L4HMOeZfByA47n9LRBk1NyCQw7XPSpk2RfQ4nyyPUMiWLsfG2ZVYUOAoGF4uhgFAoDncQ3OQ8x4pm6OcSQkbZjMjjTKh+8hMR4qAQJeE+c6+AQY8ctLDhv4H3x+MtwigdAHC1P8UosQAT1CQyQurH4twShYrKa2Atboa4WEh8PX1TJq3zVaDzVsyYaOwUj+TCVarlZIHa/Hw6JHw8ZY6g5nZ6M+vnUaFpe52owcUwsiO98qf2hvDKHJgvjdjEmZ+ZsDvQqaaUWOn4+kpiSpOW8dpuAgI9i4o1K2Eboi53yPn/A/IiU3EGBXupJJPn0PfaTJugnGrKPppoEwuSoDQhTSKzRyNoun1vK1pGDT3gKw/XgayXkDgAZkJE1/Lwvw71aDXgiMvpiB5g2OIzo1Y+vEGjIkz9hk0PO05QKCDfjbZxCWHFiBxFtsHFYDAvT1rOK0tP5Xi6EUvxJJDN8zPWyFEUy8g8OlA5OYZ5y/KjMyFZZgu83twtQQFQEh5IoxIBJWSFvn9w8Exr6khTPx3IWX86ucHiiW20hdHh0vW+lPOr8grrEts8yMw6HVjF/j5GUn64v8Yf7lwCZ/vP0x9NfkQbAQ68UMHIuZaZ/rLv751DjkFTQTUWqDgSxFS654wCAj1U807uB6LZq7FNlkop/qxEoIR01/C0j8P1IhwcQcQjB1s3OgpSrY7RMl2UgkrAAL3pi+bg4L/5dGMLCwZ7mjG0gsInCTB6yjze6dS5rfDfDj5JKOWZiJjpHr4rpJUPQoIHJoIAQgc0j7uYUmmLLo5PyKLqjH2a9ALCHxtbsKUCIr0Ur8MWw4W4pY1cqcwx1fEXaN2QmHO+wW49xPZee4AlpqAMP512ZVEQ4KdIrzx9+SmaB4b0U4cPXa2LoyU3cwpl6DTddG4JspAjL/CmPmFRdj1xX+d/nX4sFvRPsLZ1DPnP+fwQ56kIoGmprD+SdcOgrpJWZB3cg/RU2zFe/sO44jO2LfovpPx5pt0eCleZpsfEJi/Iu98FlbPeck5QscAIIxYspVCX7WirNiNPp4S86RbGT1pLQ490xA8z/5NJyBkb0HK71+CROfgajWcDysvE6nxi7HD8Z8k+SDGjhCPAoLQEPSFnaowsA4m2/o0isPv1ZkK/qjmHPD2WScgnCvCAy9Wy+jAyS9DeSN3aaUYKPg/nKjHXTS7aWlPHgeEmLBaezlKU70GwIDgo31nsf24FRVkWu97nReeGB6LqAj3ncis78+/JP9BvfbBtjCqfTjuJg2hoZZCw7bWEDDN3nAWuUXO/hA1TcE9QJB+VJa8H3Di0GHs+DST/mjUSFCM5mF9egoQGJ/S9zjyzTGKKjqGA4d+RAlzsEqStjg/DAOAoLceQs7WyRg297B0MIo2Oi2JNtIJCBRWez2F1Xqs0V4c4kZWaY/gOUAQPoQ83XkICmG6su0KJbP5bXE+9oSwwZTgVufkVWs6AYF3WBPFzmfpegrp6DQNthQgGDUZRQXXYs4IP0TSgd9wKH95uhj/2vmLvfLZrZSN+j8jO8LXxzidBG+rmF/i9NmfUEQ32oh2oejerTOZpZzNUZVmC+Zs/AG/Ug0FXuOBgjsmI+2jgh3Gh6mAziqs/IRXN8GERzMyZSaThl7dBISSM9hB46ZvPqBauEdxDboBQSkiyblnrh/BaRx9gMD3SWjviLH16uvPY4BAGcJPPiuvc8CrMyB8CHU7YzwPgSW2PvIHf0xLDFEw2eoDBC5w6Ui8a5w3xzTo5IxuKUCY+p/L5FTWT1vhQ07dOcOJXyiChBoa1AgKZmsNsZPaEE7ha/Lbu76flntPFVwuwayNuTBblf0hclAIC/Qmp7L7pi2tmVvIxDFz9EvOuQHcg9c9DcFCCXQTJmzghHryZhmC+L6R2P2tLKlMNyDod8gKQFD/SixfFOJmSjiSNIpT/zAjAtIIYAEITTKy4OT2cswnuotvDARKmiJ98O4CkqtTCpIABLgSdjq6j424b2rtZqOQ4ECYTH6NUT/MdFNto5AwKxFMWaz2yCP2XPvwMEPRR7W1NlQWHEct8SIFRt0Mb1/lTGU25nfnLiF9O1FwaDRHUDAcdqrVucq/W/YuJi6jTNkTStQXLmoIeVl0+5mnnJQ2jMJg425Ex2HXo2PsjegWSyR3PPOLbkAA5RPoK6HJBYT70/HtsniH25o+DYHrCO+bgPmDtXwZChsUG098Tn1corLwjIagUMSGYtSdi9YIQHDaRcq7yMmuxN6samRm1+Ioh7tJ/o69poNTrWR9gMAFbzc1hAmp5JAe7OCQbikNwZXEtBBTLZ4aQtqAgboRLPoo5tpIXdpDjbUCufvnwLvyeztXUlVtODrc/gL8Q+uzK2S7W1RShh1HC6iiWrmuI7sBFAZe768vMa3kGN5bu5uYCx1bH4x4Jl5//DrPmQml4i+uAcKRF++ikEpZjkToXVS2czqFnioky7kJCHojdI68OITmJtseJ2euPkAAj0ZEr1NZ1xei/yGPAIICfxC/TrEABO3doeQ64kQ7eZoAYnc1thDFOC9zKCWV6kAPdvQr6AME8PIgiNWUW4LUabKlWEoFi9bI/t4p36SlAMEV6gq2lhBTDRK7WXBzrK9TqUzmDK6oqsVPhdXII5v+tUTi1P1aP3IIt7NrFFrt8pmNCCh8F4H+dYhpoxKal736IOqW550vB6SBXPi1AKs+owQ7Gk9vY6DwwG0xRF2hgwK7hPhyhhBfjqRz/eYS+2uUoJWaKItuIUBYQwXkRzhF0LoCCGewLmE8Fv3iOEmi5/6Y6LnVYuzdBAQ4OYZ5O8CbG+AMJjoBgbcfPSnBbIvrCWZ6vxv5c+4DgpItXJntlFfFzDk8tX6mrSUxLcyXEsfUymzaiCjwMh6Ws77qphJX2cGfyD+zyLkOdSxRjO+SUIzrBASFKCenSCHelLgRSpwkuZYCBFfJ7dhaa4mW2qfqMq4N9aKymXVOZAYEheU2p9rH8d0D8OAtdNO/Rjvuv/L0cgRW7JeI0+odBb9+qyV/x4Dn4qVCnLlQidd2S+/ven7gU+/viKHd9URDUTLa6BTMPCXtdQCFTW6isEk9Wcg5m5/EsIWywramcdh+dAqnahoPEAYiI2uVYhYuN2RTR2x+zuZxNK/vpQszYDKCopbT1CUz8Qwj6u88ySg8h7ROQCBqj/dSkjHzW8cOdTq4KcrqCKX4d4slumYn6g89X430GbcAgTThzJUVmC6nVaAhlDNe24CGwL1Bg/IEmigUnCStFEqqBAhWCtpg3JnFRNVNGkDc4BAVam0bUYxfdqYYd+pbJyAoJAc6A4x8lQrRUTwajZYCBFfprxuWykDBRpXRCB1Uf00MLv4noR1u7RkDHwdabN5LtZc+hleurAps+BCg64zGxxkYsHDUsgozVu8qQY5B+g1KnMD/fbI7VXLTCkWrG/LEv5KpfKaMhJ4Y5fWwnfIrplGnirdrBSK5Nw5g9mAlMfMOUw16bpYwlkSEfRKtgvo3BAiAatU4JQI6LljpBQSgZPtf0XfmHicg26davY5lKo8n05XUia4vl4Ivd5cAwWrGOSLMf2FDfe1eeddcZ3LDQ20AELgRU0Rjr1SLuaIMG182YwGPudTp0CYaimeIhkJ2/3M2/zgKlQ8ILmsI1HVJVgFu3ewcwDLnb+F4vBs/KddCh/yDRGAopz/i0py3FCAwsblaIMcoKAzu6o8/J8QiOEiDGI/os/HDCkL/ena3gE50pZtDX1RdlYoGMKiotODzU5X4f8el5Tj13POiw/zwzydu1PNo3TNcH0DdP3Ukh+bT48cjnojdosPqqpFZSgqQc4oKtax9Fev28ZhF1W60ClnBXYmXaE0a0VPTCBaqBkalwJq0E54WowJY5BdZlzoZi3i8TAYBwS6De9OQsSAFAxzMXyUnWU2GxVxqan4tB/2AAAY0SVTSVAZm0X3HISNjCoY4meGIxPFfaUhdcVymqSj5cfR9GlxAiPRCahyvzgZx2J/mF3FpGs2Zslg6kzYACKDyoLMrZNxBdaswhXlh5v3+SCDbfRgFnpw8WIWMj2wgEk9+cwIEhVs20dCsoAI8SU6ZyjaUHCzBw2ucD2KXfQj2mZbhtWlmLHNiOvXCjCnBeIryHpoalUylrNUnCQyoJJi0KYF/SwKCqyU0HVemR1MI9vfCC3+8DtGROgjl7AV0SBespczjAHImUzlN1qqrbcgrKLJHMZ26UIX1+0vZZd9w+12/9phwtyNlo3YXOcTJk0ycPFLTh/Z7vCe0qJf5GoljT84+DCUtptuwZKSNi0e0HT0IqLZnYvUHKjkKBgAhvm9vClttMoVFR1H0EuG2hbiUFDO3uxLNRCaPZsIAIDDQVaz7UE8uOKyL3emfl8uSBfmJggOojOlWbhlTffvKBQR9r3KeIvqFv4XikW5KXDXslbYACHSD/rwAQ6mIixYNpKMQUgd5Y80hmaWBZzJSKeLTjxLRkvoTfQ59g/nZNmQdsWEnkTE4zSOSfBrpcp+GXpNR3ayVbvzs31hRr7gYb2KUJSYHMiycUgC81LR2mNmHY6VoSUA4dbEaL2TWcRG50/SAwtTh4bi9d4yuaCMJ4NCpX1peiSKis2Uawtlf68DAys9D01zGvDHXo1eszloIjb2RyWH5JKSu5SWaaQ7Z+ICqiaXhKbUQ0vpnnLiALPux6LbpWKf7V9gFs5ck48jclVIqBwOAMPuNrei4diym7dM5qCojqTFAYGJwB6R17YPGtnoKEEI7+GBVWhhui9IihmwbgGA0cSyODv4P76jGzXSLljSuD0GZ2VPfr1BJCzMGCA0Mow9SlTedrDWS6SVQBbRVIxWCbFoSEGrogJ31bpG9II27TQsUEnpRUZphHchspB1txObCDv/ySjOKS8rt2gH77//+aLGHmBIZqkstmvwGK564Ad7Eu+RKy9lO3PpzMnUmfzmOQOR2z67E0vH6Yt61Kp85cwHRrYXI21IfWYXdmudzvTlp2GFnbh8jgMDyEHrSQT6azDfagJ8eAAAGH0lEQVRaVcsoBDZjy0vGHOM6nNYle1cgddpmA/thwpCHFmPpCwbChhU+FHcBgWXPTpsYhMcHB+oKTmgrGoJdXFRAZulzFGKpEe8RSr6FD1lOAO8QVIwyIkvBFxQ9RMl8slgP1Z+0Kcwbq6hgzF1c4DUKCGwoMkkdK8HkV1TMXvIZ0Z7PmRpCNbBVwlFaEhDYfLd9U4l3vzZui+dJXw0UYsN9kDYiknIS2lOOAb+eMTv0LVXEjUQ+gnJyGrPEM/v3VVWDj78px5GfNE871Y9i7NBr8OAgzarZGlhBBWC2rsfbazPxngY3UHRUb4yYNAkTH7od3fQENTmOnHcY6xZSbeTPfpQVdyFn7qB52PpmknMuBFFXbFuejvR3jju9w7ru2DcZsxdMriuYw/ONGAWEftQpq2v84mL+mKx40JQpSBs/ULXIum5yO97OMI6mza9i9do92K3IQEuZ2ffTPkxJQjxRrHiiGQUExq8TG+WNu3qQaWNooJ2EzVhrKxpCw6qUs4kbqCRmEpWE/Wg0BAj1/ReXY89HZmR8UauarRzF/DoPBGD0HcEqCYiuAEL9PKxU33lTBZaqzIOtN+EOP8xNCYNGEUi+LPQkv2kAiSa5XcO2lZlrMP2dIlhUqB+MfLhqoDA9MRyx7U0IJeoLb/INMABgrKlMA7CSb4D5BxrYU9mY1ZSHcPC8GZ+drEQ5hbW60wJ8vfHPiTcilJw5HmuWUqpBQGUpzxfWVzyr69k/qguFN0bKqpq5Omp9nYP8AuqXCu7oCpkkNlYitzvXeECGoGNPsqtLy6y5OiH+eySLvNwf68c0IborjRdd52i/Us3u0D//I5qIb9m6mxz+V2oeYhxHCVDlsApiL2golS6vsua2sOr6z/vZglwH63dYB3/EUhle48ynrk6IzYNlTluR33C/DvJBXBz9FoL0RTS6OrKe93QDAuts08EKbP/O1QKhztNRAoUBdCt6eJD2Da2gzEbagMUOBqVm94CgYXa/vyUSfxp2rR7ZiWeEBIQEhASuKgkYAgSmJcx67zLKpSUF3BKIEijcf3MQ7rghgDiQvOzaAHMOX66w2dlKf6aM47OXrLhY7KLHWGHGQSYfu+8gNMCD2oFb0hEvCwkICQgJXDkJGAIENq0dx81464A+TiC9y1ACBTqficraiwjwKDzNs2c/d2rj4zvgvv7amdJ61yWeExIQEhASaEsSMAwIrJrmom1FyM7z7AmtFX3U3EKNuyYAi8Z2tZPliSYkICQgJPBblIBhQGBC+qXIhnkfFLkc468k6JYCBRMV61nypzhyZF9J1+Zv8XMTaxYSEBJozRJwCRDYgnafseD1PZRu4WKsfqsBBfJPpCbG4u7e4a15n8TchASEBIQEml0CLgMCm9n6/eXYecLs8UleSU0hgSgqJhqkqPD4gkWHQgJCAkICrUACbgEC8yes3FGMozn66wzoXfOVAIUBXUMwY1RnynXQOyvxnJCAkICQwNUrAbcAgYnFSklhK7JKcCy3bYHCzZ2CMfOBzvYoJtGEBIQEhASEBMgDQDH+bmd0sRyBjJ1tR1NgmkHayE4CDMQvQEhASEBIwEECHgEE1h8zH71l9ylQJnNrdTQT9iX0j8TjlG8gzETidyAkICQgJCCVgMcAoaFbFn20fn8ZJZN5VtTu+hRYaOnj98SIaCLPbovoTUhASOAqkoDHAYHJhuUprKGQ1NaSvMaSzp7+XazIM7iKPlyxFCEBIQHPS6BZAKHBhMRCUrdSXYIrwX3EEw3jJhpzezRG9I0QGcie/3ZEj0ICQgJXmQSaDRAa5MQI8T7+1oxPT5mvCHU2G5dRWCf0i8CoW6MEUd1V9sGK5QgJCAk0nwSaHRAcgWHXaSp6f9rcbJXXWKWze2+OsP8RjKXN99GInoUEhASuTglcMUBoEB8rx3nmVxsOnbfgKFU2yyulmFVXo5JqqhFhKsPALsG47cYwdL8u0OWyl1fn9opVCQkICQgJ6JfAFQcE+dQYIJzLq8YP+dW4UFyNAqJHKiIzU4WlFtUslpWaL8WIBvl7ITzAG5FUNyemnS+uj/JFt2hfRIeK2gX6t1s8KSQgJCAkoCyB/w+F5jhtcaGFtQAAAABJRU5ErkJggg==;fontFamily=微软雅黑;" parent="1" vertex="1">
          <mxGeometry x="567" y="372.81" width="248.59" height="41" as="geometry" />
        </mxCell>
        <mxCell id="tKkF-gv1eWB0MFgZ7DPZ-13" style="edgeStyle=orthogonalEdgeStyle;rounded=1;orthogonalLoop=1;jettySize=auto;html=1;dashed=1;fontFamily=微软雅黑;exitX=0.216;exitY=0.928;exitDx=0;exitDy=0;exitPerimeter=0;strokeColor=#4D4D4D;" edge="1" parent="1" source="tKkF-gv1eWB0MFgZ7DPZ-1" target="tKkF-gv1eWB0MFgZ7DPZ-18">
          <mxGeometry relative="1" as="geometry">
            <mxPoint x="287" y="394.29999999999995" as="targetPoint" />
          </mxGeometry>
        </mxCell>
        <mxCell id="tKkF-gv1eWB0MFgZ7DPZ-1" value="Model" style="ellipse;whiteSpace=wrap;html=1;aspect=fixed;fillColor=#9c80fd;strokeColor=none;fontColor=#FFFFFF;fontSize=32;fontFamily=微软雅黑;" vertex="1" parent="1">
          <mxGeometry x="347" y="251.5" width="208.5" height="208.5" as="geometry" />
        </mxCell>
        <mxCell id="tKkF-gv1eWB0MFgZ7DPZ-12" style="edgeStyle=orthogonalEdgeStyle;rounded=1;orthogonalLoop=1;jettySize=auto;html=1;entryX=0.182;entryY=0.118;entryDx=0;entryDy=0;dashed=1;fontFamily=微软雅黑;entryPerimeter=0;strokeColor=#4D4D4D;" edge="1" parent="1" source="tKkF-gv1eWB0MFgZ7DPZ-2" target="tKkF-gv1eWB0MFgZ7DPZ-1">
          <mxGeometry relative="1" as="geometry" />
        </mxCell>
        <mxCell id="tKkF-gv1eWB0MFgZ7DPZ-2" value="" style="rounded=1;whiteSpace=wrap;html=1;arcSize=5;strokeColor=none;fillColor=#7db7ed;fontFamily=微软雅黑;" vertex="1" parent="1">
          <mxGeometry x="22" y="231.57" width="250" height="90" as="geometry" />
        </mxCell>
        <mxCell id="tKkF-gv1eWB0MFgZ7DPZ-4" value="" style="rounded=1;whiteSpace=wrap;html=1;arcSize=50;strokeColor=none;fillColor=#FFFFFF;align=left;spacingLeft=10;fontColor=#FFFFFF;fontFamily=微软雅黑;" vertex="1" parent="1">
          <mxGeometry x="35.5" y="245.57" width="223" height="12" as="geometry" />
        </mxCell>
        <mxCell id="tKkF-gv1eWB0MFgZ7DPZ-10" value="" style="rounded=1;whiteSpace=wrap;html=1;arcSize=50;strokeColor=none;fillColor=#FFFFFF;align=left;spacingLeft=10;fontColor=#FFFFFF;fontFamily=微软雅黑;" vertex="1" parent="1">
          <mxGeometry x="35.5" y="262.57" width="223" height="12" as="geometry" />
        </mxCell>
        <mxCell id="tKkF-gv1eWB0MFgZ7DPZ-11" value="" style="rounded=1;whiteSpace=wrap;html=1;arcSize=50;strokeColor=none;fillColor=#FFFFFF;align=left;spacingLeft=10;fontColor=#FFFFFF;fontFamily=微软雅黑;" vertex="1" parent="1">
          <mxGeometry x="35.5" y="278.57" width="223" height="12" as="geometry" />
        </mxCell>
        <mxCell id="tKkF-gv1eWB0MFgZ7DPZ-14" value="Prompt" style="text;html=1;align=center;verticalAlign=middle;resizable=0;points=[];autosize=1;strokeColor=none;fillColor=none;fontSize=32;fontColor=#0CB093;fontStyle=1;fontFamily=微软雅黑;" vertex="1" parent="1">
          <mxGeometry x="17" y="181.57" width="140" height="50" as="geometry" />
        </mxCell>
        <mxCell id="tKkF-gv1eWB0MFgZ7DPZ-15" value="Generated Text" style="text;html=1;align=center;verticalAlign=middle;resizable=0;points=[];autosize=1;strokeColor=none;fillColor=none;fontSize=32;fontColor=#0CB093;fontStyle=1;fontFamily=微软雅黑;" vertex="1" parent="1">
          <mxGeometry x="12" y="350" width="270" height="50" as="geometry" />
        </mxCell>
        <mxCell id="tKkF-gv1eWB0MFgZ7DPZ-16" value="" style="rounded=1;whiteSpace=wrap;html=1;arcSize=50;strokeColor=none;fillColor=#FFFFFF;align=left;spacingLeft=10;fontColor=#FFFFFF;fontFamily=微软雅黑;" vertex="1" parent="1">
          <mxGeometry x="35.5" y="295.57" width="151.5" height="12" as="geometry" />
        </mxCell>
        <mxCell id="tKkF-gv1eWB0MFgZ7DPZ-18" value="" style="rounded=1;whiteSpace=wrap;html=1;arcSize=5;strokeColor=none;fillColor=#09BE92;fontFamily=微软雅黑;" vertex="1" parent="1">
          <mxGeometry x="22" y="400" width="250" height="90" as="geometry" />
        </mxCell>
        <mxCell id="tKkF-gv1eWB0MFgZ7DPZ-19" value="" style="rounded=1;whiteSpace=wrap;html=1;arcSize=50;strokeColor=none;fillColor=#FFFFFF;align=left;spacingLeft=10;fontColor=#FFFFFF;fontFamily=微软雅黑;" vertex="1" parent="1">
          <mxGeometry x="35.5" y="413.81" width="223" height="12" as="geometry" />
        </mxCell>
        <mxCell id="tKkF-gv1eWB0MFgZ7DPZ-20" value="" style="rounded=1;whiteSpace=wrap;html=1;arcSize=50;strokeColor=none;fillColor=#FFFFFF;align=left;spacingLeft=10;fontColor=#FFFFFF;fontFamily=微软雅黑;" vertex="1" parent="1">
          <mxGeometry x="35.5" y="430.81" width="223" height="12" as="geometry" />
        </mxCell>
        <mxCell id="tKkF-gv1eWB0MFgZ7DPZ-21" value="" style="rounded=1;whiteSpace=wrap;html=1;arcSize=50;strokeColor=none;fillColor=#FFFFFF;align=left;spacingLeft=10;fontColor=#FFFFFF;fontFamily=微软雅黑;" vertex="1" parent="1">
          <mxGeometry x="35.5" y="446.81" width="223" height="12" as="geometry" />
        </mxCell>
        <mxCell id="tKkF-gv1eWB0MFgZ7DPZ-22" value="" style="rounded=1;whiteSpace=wrap;html=1;arcSize=50;strokeColor=none;fillColor=#FFFFFF;align=left;spacingLeft=10;fontColor=#FFFFFF;fontFamily=微软雅黑;" vertex="1" parent="1">
          <mxGeometry x="35.5" y="463.81" width="151.5" height="12" as="geometry" />
        </mxCell>
      </root>
    </mxGraphModel>
  </diagram>
</mxfile>
